<?xml version="1.0" encoding="UTF-8" standalone="no"?>
<!-- Created with Inkscape (http://www.inkscape.org/) -->

<svg
   xmlns:dc="http://purl.org/dc/elements/1.1/"
   xmlns:cc="http://creativecommons.org/ns#"
   xmlns:rdf="http://www.w3.org/1999/02/22-rdf-syntax-ns#"
   xmlns:svg="http://www.w3.org/2000/svg"
   xmlns="http://www.w3.org/2000/svg"
   xmlns:sodipodi="http://sodipodi.sourceforge.net/DTD/sodipodi-0.dtd"
   xmlns:inkscape="http://www.inkscape.org/namespaces/inkscape"
   width="322.44095"
   height="194.88188"
   id="svg2"
   version="1.1"
   inkscape:version="0.48.4 r9939"
   sodipodi:docname="card-front.svg">
  <sodipodi:namedview
     id="base"
     pagecolor="#000000"
     bordercolor="#666666"
     borderopacity="1.0"
     inkscape:pageopacity="0"
     inkscape:pageshadow="2"
     inkscape:zoom="2"
     inkscape:cx="172.09599"
     inkscape:cy="98.48012"
     inkscape:document-units="mm"
     inkscape:current-layer="layer1"
     showgrid="false"
     units="mm"
     borderlayer="true"
     inkscape:showpageshadow="false"
     inkscape:window-width="960"
     inkscape:window-height="1028"
     inkscape:window-x="0"
     inkscape:window-y="24"
     inkscape:window-maximized="0"
     showguides="false"
     inkscape:guide-bbox="true"
     showborder="false">
    <inkscape:grid
       snapvisiblegridlinesonly="true"
       enabled="true"
       visible="true"
       empspacing="5"
       id="grid4750"
       type="xygrid"
       dotted="false"
       units="mm"
       spacingx="1mm"
       spacingy="1mm" />
  </sodipodi:namedview>
  <defs
     id="defs4" />
  <metadata
     id="metadata7">
    <rdf:RDF>
      <cc:Work
         rdf:about="">
        <dc:format>image/svg+xml</dc:format>
        <dc:type
           rdf:resource="http://purl.org/dc/dcmitype/StillImage" />
        <dc:title />
      </cc:Work>
    </rdf:RDF>
  </metadata>
  <g
     transform="translate(0,-857.4803)"
     id="layer1"
     inkscape:groupmode="layer"
     inkscape:label="Layer 1"
     sodipodi:insensitive="true">
    <rect
       y="846.85034"
       x="-10.629913"
       height="216.14174"
       width="343.70078"
       id="rect3862"
       style="fill:#4e6a41;fill-opacity:1;fill-rule:evenodd;stroke:none" />
    <g
       style="font-size:20px;font-style:normal;font-variant:normal;font-weight:800;font-stretch:normal;line-height:125%;letter-spacing:0px;word-spacing:0px;fill:#f4f7f2;fill-opacity:1;stroke:none;font-family:Open Sans;-inkscape-font-specification:Open Sans Ultra-Bold"
       id="text3030">
      <path
         d="m 126.03981,1009.5463 c -2e-5,0.9179 -0.15952,1.7741 -0.47852,2.5683 -0.31251,0.7943 -0.74871,1.416 -1.30859,1.8653 -0.55991,0.4492 -1.19793,0.6738 -1.91406,0.6738 -0.51434,0 -0.97983,-0.1009 -1.39649,-0.3027 -0.41667,-0.2084 -0.74219,-0.4948 -0.97656,-0.8594 l -0.14648,0 c -0.69663,0.7747 -1.54298,1.1621 -2.53907,1.1621 -1.19141,0 -2.10612,-0.3483 -2.74414,-1.0449 -0.63802,-0.6966 -0.95703,-1.67 -0.95703,-2.92 0,-0.9179 0.20182,-1.7285 0.60547,-2.4316 0.40364,-0.7096 0.98632,-1.2532 1.74805,-1.6309 0.76171,-0.3841 1.64387,-0.5761 2.64648,-0.5761 0.52734,0 1.10676,0.055 1.73828,0.166 0.63801,0.1042 1.22069,0.2474 1.74805,0.4297 l -0.20508,4.1211 -0.0195,0.9179 c -1e-5,0.5599 0.15949,0.8399 0.47852,0.8399 0.33852,0 0.61196,-0.2832 0.82031,-0.8496 0.21483,-0.5664 0.32225,-1.2826 0.32227,-2.1485 -2e-5,-1.5559 -0.43947,-2.7571 -1.31836,-3.6035 -0.87892,-0.8463 -2.12567,-1.2695 -3.74024,-1.2695 -1.23699,0 -2.31446,0.2572 -3.23242,0.7715 -0.91146,0.5143 -1.60808,1.2532 -2.08984,2.2168 -0.48178,0.957 -0.72266,2.0801 -0.72266,3.3691 0,1.6602 0.46224,2.9427 1.38672,3.8477 0.93098,0.8984 2.24283,1.3476 3.93555,1.3476 0.75519,0 1.569,-0.081 2.4414,-0.2441 0.8789,-0.1628 1.73827,-0.3939 2.57813,-0.6934 l 0,2.2363 c -1.45835,0.6185 -3.08595,0.9278 -4.88282,0.9278 -2.52604,0 -4.51172,-0.6576 -5.95703,-1.9727 -1.4388,-1.3216 -2.1582,-3.151 -2.1582,-5.4883 0,-1.6471 0.37109,-3.1217 1.11328,-4.4238 0.7487,-1.3086 1.77734,-2.3144 3.08594,-3.0176 1.3151,-0.7096 2.80272,-1.0644 4.46289,-1.0644 1.52343,0 2.86783,0.2897 4.0332,0.8691 1.17186,0.5795 2.0703,1.4063 2.69531,2.4805 0.6315,1.0677 0.94725,2.3112 0.94727,3.7305 m -9.7168,1.123 c 0,0.6511 0.11718,1.1231 0.35157,1.416 0.24087,0.293 0.55663,0.4395 0.94726,0.4395 0.50129,0 0.86913,-0.2018 1.10352,-0.6055 0.23436,-0.4036 0.38736,-1.1198 0.45898,-2.1484 l 0.0977,-1.5235 c -0.26043,-0.039 -0.48178,-0.058 -0.66406,-0.059 -0.70314,10e-5 -1.26303,0.2182 -1.67969,0.6543 -0.41017,0.4362 -0.61524,1.045 -0.61524,1.8262"
         id="path5341"
         inkscape:connector-curvature="0" />
      <path
         d="m 134.907,1005.6693 c 1.20442,0 2.15819,0.5046 2.86133,1.5137 0.70962,1.0091 1.06444,2.4056 1.06445,4.1894 -1e-5,1.7969 -0.35809,3.2064 -1.07422,4.2286 -0.70965,1.0156 -1.69923,1.5234 -2.96875,1.5234 -0.41016,0 -0.77475,-0.046 -1.09375,-0.1367 -0.31902,-0.085 -0.60547,-0.2051 -0.85937,-0.3614 -0.24741,-0.1562 -0.53712,-0.4166 -0.86915,-0.7812 l -0.23437,0 -0.60547,1.084 -2.97851,0 0,-15.1953 3.81835,0 0,3.4375 c 0,0.4101 -0.0456,1.1165 -0.13671,2.1191 l 0.13671,0 c 0.37109,-0.5729 0.79752,-0.9863 1.2793,-1.2402 0.48828,-0.2539 1.04166,-0.3809 1.66016,-0.3809 m -1.39649,2.9981 c -0.53386,0 -0.92448,0.1855 -1.17187,0.5566 -0.2474,0.3711 -0.3711,0.9538 -0.3711,1.748 l 0,0.5372 c 0,0.9049 0.1237,1.5559 0.3711,1.9531 0.24739,0.3906 0.65103,0.5859 1.21094,0.5859 0.44921,0 0.79426,-0.2278 1.03515,-0.6836 0.24088,-0.4622 0.36132,-1.1393 0.36133,-2.0312 -10e-6,-1.7774 -0.47852,-2.666 -1.43555,-2.666"
         id="path5343"
         inkscape:connector-curvature="0" />
      <path
         d="m 151.56715,1011.3724 c -1e-5,1.8099 -0.48829,3.2227 -1.46484,4.2383 -0.97006,1.0091 -2.33074,1.5137 -4.08203,1.5137 -1.67969,0 -3.01758,-0.5176 -4.01367,-1.5527 -0.98959,-1.0352 -1.48438,-2.4349 -1.48438,-4.1993 0,-1.8033 0.48503,-3.2031 1.45508,-4.1992 0.97656,-1.0026 2.34375,-1.5039 4.10156,-1.5039 1.08723,0 2.04752,0.2311 2.88086,0.6934 0.83333,0.4622 1.4746,1.1263 1.92383,1.9922 0.45572,0.8593 0.68358,1.8652 0.68359,3.0175 m -7.16796,0 c -1e-5,0.9506 0.12694,1.6765 0.38085,2.1778 0.25391,0.4948 0.68034,0.7422 1.2793,0.7422 0.59244,0 1.00911,-0.2474 1.25,-0.7422 0.24739,-0.5013 0.37109,-1.2272 0.3711,-2.1778 -1e-5,-0.944 -0.12371,-1.6569 -0.3711,-2.1386 -0.2474,-0.4818 -0.67058,-0.7227 -1.26953,-0.7227 -0.58594,0 -1.00586,0.2409 -1.25977,0.7227 -0.25391,0.4752 -0.38086,1.1881 -0.38085,2.1386"
         id="path5345"
         inkscape:connector-curvature="0" />
      <path
         d="m 161.61598,1016.9291 -0.47851,-1.377 -0.22461,0 c -0.31902,0.5078 -0.76498,0.8985 -1.33789,1.1719 -0.56642,0.2669 -1.23373,0.4004 -2.00196,0.4004 -1.21745,0 -2.16471,-0.3516 -2.84179,-1.0547 -0.67709,-0.7096 -1.01563,-1.709 -1.01563,-2.998 l 0,-7.2071 3.81836,0 0,6.0449 c 0,0.7227 0.10091,1.2696 0.30274,1.6407 0.20832,0.3711 0.54686,0.5566 1.01562,0.5566 0.65755,0 1.12629,-0.2571 1.40625,-0.7715 0.27994,-0.5208 0.41991,-1.3965 0.41992,-2.6269 l 0,-4.8438 3.81836,0 0,11.0645 -2.88086,0"
         id="path5347"
         inkscape:connector-curvature="0" />
      <path
         d="m 175.45387,1016.9291 -9.16015,0 0,-2.1778 4.58007,-5.9668 -4.3164,0 0,-2.9199 8.68164,0 0,2.3633 -4.38477,5.7813 4.59961,0 0,2.9199"
         id="path5349"
         inkscape:connector-curvature="0" />
      <path
         d="m 185.17067,1016.9291 -0.47852,-1.377 -0.22461,0 c -0.31901,0.5078 -0.76498,0.8985 -1.33789,1.1719 -0.56641,0.2669 -1.23373,0.4004 -2.00195,0.4004 -1.21745,0 -2.16472,-0.3516 -2.8418,-1.0547 -0.67708,-0.7096 -1.01562,-1.709 -1.01562,-2.998 l 0,-7.2071 3.81836,0 0,6.0449 c -1e-5,0.7227 0.1009,1.2696 0.30273,1.6407 0.20833,0.3711 0.54687,0.5566 1.01563,0.5566 0.65754,0 1.12629,-0.2571 1.40625,-0.7715 0.27994,-0.5208 0.41991,-1.3965 0.41992,-2.6269 l 0,-4.8438 3.81836,0 0,11.0645 -2.88086,0"
         id="path5351"
         inkscape:connector-curvature="0" />
      <path
         d="m 189.35036,1005.8646 4.02343,0 1.875,6.3477 c 0.0911,0.332 0.15299,0.7324 0.18555,1.2012 l 0.0781,0 c 0.0521,-0.4493 0.1302,-0.8431 0.23437,-1.1817 l 1.92383,-6.3672 3.89648,0 -4.375,11.7676 c -0.5599,1.4974 -1.25,2.5553 -2.07031,3.1738 -0.81381,0.6185 -1.87826,0.9278 -3.19336,0.9278 -0.50781,0 -1.02865,-0.055 -1.5625,-0.1661 l 0,-2.998 c 0.34505,0.078 0.73893,0.1172 1.18164,0.1172 0.33854,0 0.63477,-0.065 0.88867,-0.1953 0.25391,-0.1302 0.47526,-0.3158 0.66407,-0.5567 0.1888,-0.2343 0.39062,-0.6217 0.60547,-1.1621 l -4.35547,-10.9082"
         id="path5353"
         inkscape:connector-curvature="0" />
      <path
         d="m 210.09254,1016.9291 -0.73242,-1.4649 -0.0781,0 c -0.51433,0.6381 -1.03842,1.0743 -1.57227,1.3086 -0.53386,0.2344 -1.22396,0.3516 -2.07031,0.3516 -1.04167,0 -1.86198,-0.3125 -2.46094,-0.9375 -0.59896,-0.625 -0.89844,-1.5039 -0.89844,-2.6367 0,-1.1784 0.41016,-2.0541 1.23047,-2.627 0.82031,-0.5794 2.00846,-0.9049 3.56446,-0.9765 l 1.8457,-0.059 0,-0.1563 c -1e-5,-0.9114 -0.44923,-1.3672 -1.34766,-1.3672 -0.80729,0 -1.83268,0.2735 -3.07617,0.8203 l -1.10351,-2.5195 c 1.28906,-0.664 2.91666,-0.9961 4.88281,-0.9961 1.41926,0 2.51627,0.3516 3.29101,1.0547 0.78124,0.7031 1.17187,1.6862 1.17188,2.9492 l 0,7.2559 -2.64649,0 m -2.83203,-2.5 c 0.46224,0 0.85612,-0.1465 1.18164,-0.4395 0.33203,-0.2929 0.49804,-0.6738 0.49805,-1.1426 l 0,-0.8593 -0.87891,0.039 c -1.25651,0.046 -1.88477,0.5079 -1.88476,1.3868 -1e-5,0.677 0.36132,1.0156 1.08398,1.0156"
         id="path5355"
         inkscape:connector-curvature="0" />
    </g>
    <g
       transform="matrix(1.3799718,0,0,1.3799573,-61.260518,-339.09536)"
       style="font-size:40.00020981px;font-style:normal;font-variant:normal;font-weight:800;font-stretch:normal;line-height:125%;letter-spacing:0px;word-spacing:0px;fill:#f4f7f2;fill-opacity:1;stroke:none;font-family:Open Sans;-inkscape-font-specification:Open Sans Ultra-Bold"
       id="text3844">
      <path
         d="m 110.10763,943.1646 c 0.81066,1.87734 1.664,3.28535 2.56002,4.22402 0.93865,0.98134 1.81332,1.472 2.62401,1.47201 0.81065,-10e-6 1.38665,0.0213 1.72801,0.064 0.38398,0.0427 0.78932,0.192 1.21601,0.448 0.46931,0.256 0.78931,0.68267 0.96,1.28001 0.21331,0.59733 0.31998,1.38666 0.32,2.36801 -2e-5,0.98133 -0.10669,1.74933 -0.32,2.30401 -0.17069,0.59733 -0.49069,1.024 -0.96,1.28001 -0.72536,0.34132 -1.68537,0.51199 -2.88002,0.512 -2.90136,-10e-6 -5.52538,-1.02402 -7.87204,-3.07201 -2.30402,-2.00536 -4.1387,-4.60803 -5.50403,-7.80804 -2.77335,-6.5707 -4.160023,-13.61073 -4.160021,-21.12011 -2e-6,-7.46669 1.32267,-14.46405 3.968021,-20.99211 1.36533,-3.32798 3.22134,-6.01599 5.56803,-8.06405 2.34666,-2.09063 5.03468,-3.13596 8.06404,-3.13601 1.27999,5e-5 2.19732,0.14938 2.75202,0.448 0.89598,0.55472 1.34398,1.79206 1.344,3.71202 -2e-5,2.00539 -0.38402,3.20006 -1.152,3.58402 -0.59736,0.34137 -1.47203,0.51204 -2.62402,0.512 l -0.384,0 c -1.66403,4e-5 -3.3707,1.89872 -5.12003,5.69603 -0.81068,1.83471 -1.49335,4.35205 -2.04801,7.55204 -0.51201,3.15737 -0.76801,6.69872 -0.768,10.62406 -10e-6,3.92536 0.25599,7.46671 0.768,10.62405 0.51199,3.15735 1.152,5.65337 1.92001,7.48804"
         style="font-size:64.00033569px;font-weight:bold;fill:#f4f7f2;fill-opacity:1;font-family:Fredoka One;-inkscape-font-specification:Fredoka One Bold"
         id="path4822"
         inkscape:connector-curvature="0" />
      <path
         d="m 133.45276,947.77262 4.73602,0 c 1.06665,0 1.85599,0.17067 2.36801,0.51201 0.85332,0.51199 1.27999,1.89867 1.28001,4.16002 -2e-5,2.176 -0.38402,3.49867 -1.15201,3.96802 -0.64002,0.38399 -1.49336,0.57599 -2.56001,0.576 l -9.85605,0 c -2.47469,-10e-6 -3.98936,-0.55468 -4.54402,-1.66401 -0.42668,-0.89601 -0.64001,-2.19735 -0.64001,-3.90402 l 0,-52.86427 c 0,-1.66397 0.17067,-2.85864 0.512,-3.58402 0.384,-0.76796 0.96001,-1.27996 1.72801,-1.53601 0.768,-0.25595 1.77067,-0.38395 3.00802,-0.384 l 9.85605,0 c 1.06665,5e-5 1.85599,0.14938 2.36801,0.448 0.85332,0.55472 1.27999,1.96272 1.28001,4.22402 -2e-5,2.17606 -0.38402,3.49873 -1.15201,3.96802 -0.64002,0.38405 -1.49336,0.57605 -2.56001,0.57601 l -4.67202,0 0,45.50423"
         style="font-size:64.00033569px;font-weight:bold;fill:#f4f7f2;fill-opacity:1;font-family:Fredoka One;-inkscape-font-specification:Fredoka One Bold"
         id="path4824"
         inkscape:connector-curvature="0" />
      <path
         d="m 150.58284,910.20443 c 2.21867,3e-5 3.73335,0.4267 4.54403,1.28 0.85332,0.85337 1.27999,2.45338 1.28,4.80003 -0.0427,1.02403 -0.10668,1.79203 -0.192,2.30401 -0.0427,0.46936 -0.25601,1.04536 -0.64,1.72801 -0.64002,1.23736 -2.26136,1.85603 -4.86403,1.85601 -2.56001,2e-5 -4.26669,-0.40531 -5.12002,-1.21601 -0.81067,-0.85331 -1.21601,-2.47465 -1.21601,-4.86402 0,-2.47465 0.448,-4.05333 1.34401,-4.73603 1.06667,-0.76797 2.68801,-1.15197 4.86402,-1.152 m 0,20.4161 c 2.21867,2e-5 3.73335,0.42669 4.54403,1.28001 0.85332,0.81068 1.27999,2.41069 1.28,4.80003 -0.0427,1.02401 -0.10668,1.79201 -0.192,2.30401 -0.0427,0.46934 -0.25601,1.04534 -0.64,1.72801 -0.64002,1.23734 -2.26136,1.85601 -4.86403,1.85601 -2.56001,0 -4.26669,-0.40534 -5.12002,-1.21601 -0.81067,-0.85333 -1.21601,-2.47467 -1.21601,-4.86402 0,-2.47468 0.448,-4.05335 1.34401,-4.73603 1.06667,-0.76799 2.68801,-1.15199 4.86402,-1.15201"
         style="font-size:64.00033569px;font-weight:bold;fill:#f4f7f2;fill-opacity:1;font-family:Fredoka One;-inkscape-font-specification:Fredoka One Bold"
         id="path4826"
         inkscape:connector-curvature="0" />
      <path
         d="m 179.465,933.62855 -15.23208,0 c -2.38935,10e-6 -3.81869,-0.72533 -4.28802,-2.17601 -0.21334,-0.76799 -0.32001,-1.74933 -0.32,-2.94402 -1e-5,-1.19465 0.12799,-2.15466 0.384,-2.88001 0.256,-0.72532 0.66133,-1.23732 1.216,-1.53601 0.768,-0.38398 1.79201,-0.57598 3.07202,-0.576 l 15.23208,0 c 2.38932,2e-5 3.79733,0.70402 4.22402,2.11201 0.25598,0.76802 0.38398,1.74936 0.384,2.94401 -2e-5,1.19469 -0.12802,2.17603 -0.384,2.94402 -0.21336,0.72535 -0.57603,1.23735 -1.088,1.53601 -0.76803,0.38401 -1.8347,0.57601 -3.20002,0.576"
         style="font-size:64.00033569px;font-weight:bold;fill:#f4f7f2;fill-opacity:1;font-family:Fredoka One;-inkscape-font-specification:Fredoka One Bold"
         id="path4828"
         inkscape:connector-curvature="0" />
      <path
         d="m 222.95923,905.0844 c 1.1093,2.26138 1.66397,4.77873 1.66401,7.55204 -4e-5,2.77338 -0.55471,5.29072 -1.66401,7.55204 -1.10938,2.2187 -2.53872,3.98937 -4.28803,5.31203 -3.54138,2.73069 -7.21073,4.09603 -11.00805,4.09602 l -8.00005,0 0,7.23204 c -10e-6,0.98134 -0.0427,1.72801 -0.128,2.24001 -0.0427,0.46934 -0.23468,1.02401 -0.576,1.66401 -0.59735,1.152 -2.26135,1.72801 -4.99202,1.72801 -2.98669,0 -4.73603,-0.78934 -5.24803,-2.36802 -0.25601,-0.72533 -0.38401,-1.83467 -0.384,-3.32801 l 0,-35.52019 c -1e-5,-0.9813 0.0213,-1.70663 0.064,-2.17601 0.0853,-0.51196 0.29866,-1.08796 0.64,-1.72801 0.59733,-1.15196 2.26134,-1.72796 4.99203,-1.72801 l 13.69607,0 c 3.75466,5e-5 7.40267,1.36539 10.94405,4.09602 1.74931,1.32272 3.17865,3.11473 4.28803,5.37603 m -15.23208,13.18407 c 1.27998,2e-5 2.53865,-0.46931 3.77602,-1.40801 1.23731,-0.93864 1.85598,-2.34665 1.85601,-4.22402 -3e-5,-1.87731 -0.6187,-3.28532 -1.85601,-4.22402 -1.23737,-0.98131 -2.51737,-1.47197 -3.84002,-1.47201 l -8.00005,0 0,11.32806 8.06405,0"
         style="font-size:64.00033569px;font-weight:bold;fill:#f4f7f2;fill-opacity:1;font-family:Fredoka One;-inkscape-font-specification:Fredoka One Bold"
         id="path4830"
         inkscape:connector-curvature="0" />
    </g>
  </g>
  <g
     inkscape:groupmode="layer"
     inkscape:label="Printing Marks"
     id="printing-marks"
     sodipodi:insensitive="true">
    <g
       inkscape:label="CropMarks"
       id="CropMarks">
      <path
         style="fill:none;stroke:#000000;stroke-width:0.25"
         id="cropTL1"
         d="M 0,-10.629921 0,-46.062992"
         inkscape:connector-curvature="0" />
      <path
         style="fill:none;stroke:#000000;stroke-width:0.25"
         id="cropTL2"
         d="M -10.629921,0 -46.062992,0"
         inkscape:connector-curvature="0" />
      <path
         style="fill:none;stroke:#000000;stroke-width:0.25"
         id="cropTR1"
         d="m 322.44095,-10.629921 0,-35.433071"
         inkscape:connector-curvature="0" />
      <path
         style="fill:none;stroke:#000000;stroke-width:0.25"
         id="cropTR2"
         d="m 333.07087,0 35.43307,0"
         inkscape:connector-curvature="0" />
      <path
         style="fill:none;stroke:#000000;stroke-width:0.25"
         id="cropBL1"
         d="m 0,205.5118 0,35.43307"
         inkscape:connector-curvature="0" />
      <path
         style="fill:none;stroke:#000000;stroke-width:0.25"
         id="cropBL2"
         d="m -10.629921,194.88188 -35.433071,0"
         inkscape:connector-curvature="0" />
      <path
         style="fill:none;stroke:#000000;stroke-width:0.25"
         id="cropBR1"
         d="m 322.44095,205.5118 0,35.43307"
         inkscape:connector-curvature="0" />
      <path
         style="fill:none;stroke:#000000;stroke-width:0.25"
         id="cropBR2"
         d="m 333.07087,194.88188 35.43307,0"
         inkscape:connector-curvature="0" />
    </g>
    <g
       inkscape:label="BleedMarks"
       id="BleedMarks">
      <path
         style="fill:none;stroke:#000000;stroke-width:0.25;stroke-miterlimit:4;stroke-dasharray:4, 2, 1, 2;stroke-dashoffset:0"
         id="bleedTL1"
         d="m -10.629921,-10.629921 0,-35.433071"
         inkscape:connector-curvature="0" />
      <path
         style="fill:none;stroke:#000000;stroke-width:0.25;stroke-miterlimit:4;stroke-dasharray:4, 2, 1, 2;stroke-dashoffset:0"
         id="bleedTL2"
         d="m -10.629921,-10.629921 -35.433071,0"
         inkscape:connector-curvature="0" />
      <path
         style="fill:none;stroke:#000000;stroke-width:0.25;stroke-miterlimit:4;stroke-dasharray:4, 2, 1, 2;stroke-dashoffset:0"
         id="bleedTR1"
         d="m 333.07087,-10.629921 0,-35.433071"
         inkscape:connector-curvature="0" />
      <path
         style="fill:none;stroke:#000000;stroke-width:0.25;stroke-miterlimit:4;stroke-dasharray:4, 2, 1, 2;stroke-dashoffset:0"
         id="bleedTR2"
         d="m 333.07087,-10.629921 35.43307,0"
         inkscape:connector-curvature="0" />
      <path
         style="fill:none;stroke:#000000;stroke-width:0.25;stroke-miterlimit:4;stroke-dasharray:4, 2, 1, 2;stroke-dashoffset:0"
         id="bleedBL1"
         d="m -10.629921,205.5118 0,35.43307"
         inkscape:connector-curvature="0" />
      <path
         style="fill:none;stroke:#000000;stroke-width:0.25;stroke-miterlimit:4;stroke-dasharray:4, 2, 1, 2;stroke-dashoffset:0"
         id="bleedBL2"
         d="m -10.629921,205.5118 -35.433071,0"
         inkscape:connector-curvature="0" />
      <path
         style="fill:none;stroke:#000000;stroke-width:0.25;stroke-miterlimit:4;stroke-dasharray:4, 2, 1, 2;stroke-dashoffset:0"
         id="bleedBR1"
         d="m 333.07087,205.5118 0,35.43307"
         inkscape:connector-curvature="0" />
      <path
         style="fill:none;stroke:#000000;stroke-width:0.25;stroke-miterlimit:4;stroke-dasharray:4, 2, 1, 2;stroke-dashoffset:0"
         id="bleedBR2"
         d="m 333.07087,205.5118 35.43307,0"
         inkscape:connector-curvature="0" />
    </g>
  </g>
</svg>
