<?xml version="1.0" encoding="UTF-8" standalone="no"?>
<!-- Created with Inkscape (http://www.inkscape.org/) -->

<svg
   xmlns:dc="http://purl.org/dc/elements/1.1/"
   xmlns:cc="http://creativecommons.org/ns#"
   xmlns:rdf="http://www.w3.org/1999/02/22-rdf-syntax-ns#"
   xmlns:svg="http://www.w3.org/2000/svg"
   xmlns="http://www.w3.org/2000/svg"
   xmlns:sodipodi="http://sodipodi.sourceforge.net/DTD/sodipodi-0.dtd"
   xmlns:inkscape="http://www.inkscape.org/namespaces/inkscape"
   width="91mm"
   height="54.999996mm"
   id="svg2"
   version="1.1"
   inkscape:version="0.91 r13725"
   sodipodi:docname="card-front.svg">
  <sodipodi:namedview
     id="base"
     pagecolor="#000000"
     bordercolor="#666666"
     borderopacity="1.0"
     inkscape:pageopacity="0"
     inkscape:pageshadow="2"
     inkscape:zoom="1"
     inkscape:cx="161.22047"
     inkscape:cy="97.440938"
     inkscape:document-units="mm"
     inkscape:current-layer="layer1"
     showgrid="true"
     units="mm"
     borderlayer="true"
     inkscape:showpageshadow="false"
     inkscape:window-width="1362"
     inkscape:window-height="746"
     inkscape:window-x="0"
     inkscape:window-y="0"
     inkscape:window-maximized="0"
     showguides="true"
     inkscape:guide-bbox="true"
     showborder="false">
    <inkscape:grid
       snapvisiblegridlinesonly="true"
       enabled="true"
       visible="true"
       empspacing="5"
       id="grid4750"
       type="xygrid"
       dotted="false"
       units="mm"
       spacingx="1mm"
       spacingy="1mm" />
  </sodipodi:namedview>
  <defs
     id="defs4" />
  <metadata
     id="metadata7">
    <rdf:RDF>
      <cc:Work
         rdf:about="">
        <dc:format>image/svg+xml</dc:format>
        <dc:type
           rdf:resource="http://purl.org/dc/dcmitype/StillImage" />
        <dc:title />
      </cc:Work>
    </rdf:RDF>
  </metadata>
  <g
     transform="translate(0,-857.4803)"
     id="layer1"
     inkscape:groupmode="layer"
     inkscape:label="Layer 1"
     sodipodi:insensitive="true">
    <rect
       y="846.85034"
       x="-10.629913"
       height="216.14174"
       width="343.70078"
       id="rect3862"
       style="fill:#4e6a41;fill-opacity:1;fill-rule:evenodd;stroke:none" />
    <g
       style="font-style:normal;font-variant:normal;font-weight:800;font-stretch:normal;font-size:20px;line-height:125%;font-family:'Open Sans';-inkscape-font-specification:'Open Sans Ultra-Bold';letter-spacing:0px;word-spacing:0px;fill:#f4f7f2;fill-opacity:1;stroke:none"
       id="text3030">
      <path
         d="m 126.03981,1009.5463 c -2e-5,0.9179 -0.15952,1.7741 -0.47852,2.5683 -0.31251,0.7943 -0.74871,1.416 -1.30859,1.8653 -0.55991,0.4492 -1.19793,0.6738 -1.91406,0.6738 -0.51434,0 -0.97983,-0.1009 -1.39649,-0.3027 -0.41667,-0.2084 -0.74219,-0.4948 -0.97656,-0.8594 l -0.14648,0 c -0.69663,0.7747 -1.54298,1.1621 -2.53907,1.1621 -1.19141,0 -2.10612,-0.3483 -2.74414,-1.0449 -0.63802,-0.6966 -0.95703,-1.67 -0.95703,-2.92 0,-0.9179 0.20182,-1.7285 0.60547,-2.4316 0.40364,-0.7096 0.98632,-1.2532 1.74805,-1.6309 0.76171,-0.3841 1.64387,-0.5761 2.64648,-0.5761 0.52734,0 1.10676,0.055 1.73828,0.166 0.63801,0.1042 1.22069,0.2474 1.74805,0.4297 l -0.20508,4.1211 -0.0195,0.9179 c -1e-5,0.5599 0.15949,0.8399 0.47852,0.8399 0.33852,0 0.61196,-0.2832 0.82031,-0.8496 0.21483,-0.5664 0.32225,-1.2826 0.32227,-2.1485 -2e-5,-1.5559 -0.43947,-2.7571 -1.31836,-3.6035 -0.87892,-0.8463 -2.12567,-1.2695 -3.74024,-1.2695 -1.23699,0 -2.31446,0.2572 -3.23242,0.7715 -0.91146,0.5143 -1.60808,1.2532 -2.08984,2.2168 -0.48178,0.957 -0.72266,2.0801 -0.72266,3.3691 0,1.6602 0.46224,2.9427 1.38672,3.8477 0.93098,0.8984 2.24283,1.3476 3.93555,1.3476 0.75519,0 1.569,-0.081 2.4414,-0.2441 0.8789,-0.1628 1.73827,-0.3939 2.57813,-0.6934 l 0,2.2363 c -1.45835,0.6185 -3.08595,0.9278 -4.88282,0.9278 -2.52604,0 -4.51172,-0.6576 -5.95703,-1.9727 -1.4388,-1.3216 -2.1582,-3.151 -2.1582,-5.4883 0,-1.6471 0.37109,-3.1217 1.11328,-4.4238 0.7487,-1.3086 1.77734,-2.3144 3.08594,-3.0176 1.3151,-0.7096 2.80272,-1.0644 4.46289,-1.0644 1.52343,0 2.86783,0.2897 4.0332,0.8691 1.17186,0.5795 2.0703,1.4063 2.69531,2.4805 0.6315,1.0677 0.94725,2.3112 0.94727,3.7305 m -9.7168,1.123 c 0,0.6511 0.11718,1.1231 0.35157,1.416 0.24087,0.293 0.55663,0.4395 0.94726,0.4395 0.50129,0 0.86913,-0.2018 1.10352,-0.6055 0.23436,-0.4036 0.38736,-1.1198 0.45898,-2.1484 l 0.0977,-1.5235 c -0.26043,-0.039 -0.48178,-0.058 -0.66406,-0.059 -0.70314,10e-5 -1.26303,0.2182 -1.67969,0.6543 -0.41017,0.4362 -0.61524,1.045 -0.61524,1.8262"
         id="path5341"
         inkscape:connector-curvature="0" />
      <path
         d="m 134.907,1005.6693 c 1.20442,0 2.15819,0.5046 2.86133,1.5137 0.70962,1.0091 1.06444,2.4056 1.06445,4.1894 -1e-5,1.7969 -0.35809,3.2064 -1.07422,4.2286 -0.70965,1.0156 -1.69923,1.5234 -2.96875,1.5234 -0.41016,0 -0.77475,-0.046 -1.09375,-0.1367 -0.31902,-0.085 -0.60547,-0.2051 -0.85937,-0.3614 -0.24741,-0.1562 -0.53712,-0.4166 -0.86915,-0.7812 l -0.23437,0 -0.60547,1.084 -2.97851,0 0,-15.1953 3.81835,0 0,3.4375 c 0,0.4101 -0.0456,1.1165 -0.13671,2.1191 l 0.13671,0 c 0.37109,-0.5729 0.79752,-0.9863 1.2793,-1.2402 0.48828,-0.2539 1.04166,-0.3809 1.66016,-0.3809 m -1.39649,2.9981 c -0.53386,0 -0.92448,0.1855 -1.17187,0.5566 -0.2474,0.3711 -0.3711,0.9538 -0.3711,1.748 l 0,0.5372 c 0,0.9049 0.1237,1.5559 0.3711,1.9531 0.24739,0.3906 0.65103,0.5859 1.21094,0.5859 0.44921,0 0.79426,-0.2278 1.03515,-0.6836 0.24088,-0.4622 0.36132,-1.1393 0.36133,-2.0312 -10e-6,-1.7774 -0.47852,-2.666 -1.43555,-2.666"
         id="path5343"
         inkscape:connector-curvature="0" />
      <path
         d="m 151.56715,1011.3724 c -1e-5,1.8099 -0.48829,3.2227 -1.46484,4.2383 -0.97006,1.0091 -2.33074,1.5137 -4.08203,1.5137 -1.67969,0 -3.01758,-0.5176 -4.01367,-1.5527 -0.98959,-1.0352 -1.48438,-2.4349 -1.48438,-4.1993 0,-1.8033 0.48503,-3.2031 1.45508,-4.1992 0.97656,-1.0026 2.34375,-1.5039 4.10156,-1.5039 1.08723,0 2.04752,0.2311 2.88086,0.6934 0.83333,0.4622 1.4746,1.1263 1.92383,1.9922 0.45572,0.8593 0.68358,1.8652 0.68359,3.0175 m -7.16796,0 c -1e-5,0.9506 0.12694,1.6765 0.38085,2.1778 0.25391,0.4948 0.68034,0.7422 1.2793,0.7422 0.59244,0 1.00911,-0.2474 1.25,-0.7422 0.24739,-0.5013 0.37109,-1.2272 0.3711,-2.1778 -1e-5,-0.944 -0.12371,-1.6569 -0.3711,-2.1386 -0.2474,-0.4818 -0.67058,-0.7227 -1.26953,-0.7227 -0.58594,0 -1.00586,0.2409 -1.25977,0.7227 -0.25391,0.4752 -0.38086,1.1881 -0.38085,2.1386"
         id="path5345"
         inkscape:connector-curvature="0" />
      <path
         d="m 161.61598,1016.9291 -0.47851,-1.377 -0.22461,0 c -0.31902,0.5078 -0.76498,0.8985 -1.33789,1.1719 -0.56642,0.2669 -1.23373,0.4004 -2.00196,0.4004 -1.21745,0 -2.16471,-0.3516 -2.84179,-1.0547 -0.67709,-0.7096 -1.01563,-1.709 -1.01563,-2.998 l 0,-7.2071 3.81836,0 0,6.0449 c 0,0.7227 0.10091,1.2696 0.30274,1.6407 0.20832,0.3711 0.54686,0.5566 1.01562,0.5566 0.65755,0 1.12629,-0.2571 1.40625,-0.7715 0.27994,-0.5208 0.41991,-1.3965 0.41992,-2.6269 l 0,-4.8438 3.81836,0 0,11.0645 -2.88086,0"
         id="path5347"
         inkscape:connector-curvature="0" />
      <path
         d="m 175.45387,1016.9291 -9.16015,0 0,-2.1778 4.58007,-5.9668 -4.3164,0 0,-2.9199 8.68164,0 0,2.3633 -4.38477,5.7813 4.59961,0 0,2.9199"
         id="path5349"
         inkscape:connector-curvature="0" />
      <path
         d="m 185.17067,1016.9291 -0.47852,-1.377 -0.22461,0 c -0.31901,0.5078 -0.76498,0.8985 -1.33789,1.1719 -0.56641,0.2669 -1.23373,0.4004 -2.00195,0.4004 -1.21745,0 -2.16472,-0.3516 -2.8418,-1.0547 -0.67708,-0.7096 -1.01562,-1.709 -1.01562,-2.998 l 0,-7.2071 3.81836,0 0,6.0449 c -1e-5,0.7227 0.1009,1.2696 0.30273,1.6407 0.20833,0.3711 0.54687,0.5566 1.01563,0.5566 0.65754,0 1.12629,-0.2571 1.40625,-0.7715 0.27994,-0.5208 0.41991,-1.3965 0.41992,-2.6269 l 0,-4.8438 3.81836,0 0,11.0645 -2.88086,0"
         id="path5351"
         inkscape:connector-curvature="0" />
      <path
         d="m 189.35036,1005.8646 4.02343,0 1.875,6.3477 c 0.0911,0.332 0.15299,0.7324 0.18555,1.2012 l 0.0781,0 c 0.0521,-0.4493 0.1302,-0.8431 0.23437,-1.1817 l 1.92383,-6.3672 3.89648,0 -4.375,11.7676 c -0.5599,1.4974 -1.25,2.5553 -2.07031,3.1738 -0.81381,0.6185 -1.87826,0.9278 -3.19336,0.9278 -0.50781,0 -1.02865,-0.055 -1.5625,-0.1661 l 0,-2.998 c 0.34505,0.078 0.73893,0.1172 1.18164,0.1172 0.33854,0 0.63477,-0.065 0.88867,-0.1953 0.25391,-0.1302 0.47526,-0.3158 0.66407,-0.5567 0.1888,-0.2343 0.39062,-0.6217 0.60547,-1.1621 l -4.35547,-10.9082"
         id="path5353"
         inkscape:connector-curvature="0" />
      <path
         d="m 210.09254,1016.9291 -0.73242,-1.4649 -0.0781,0 c -0.51433,0.6381 -1.03842,1.0743 -1.57227,1.3086 -0.53386,0.2344 -1.22396,0.3516 -2.07031,0.3516 -1.04167,0 -1.86198,-0.3125 -2.46094,-0.9375 -0.59896,-0.625 -0.89844,-1.5039 -0.89844,-2.6367 0,-1.1784 0.41016,-2.0541 1.23047,-2.627 0.82031,-0.5794 2.00846,-0.9049 3.56446,-0.9765 l 1.8457,-0.059 0,-0.1563 c -1e-5,-0.9114 -0.44923,-1.3672 -1.34766,-1.3672 -0.80729,0 -1.83268,0.2735 -3.07617,0.8203 l -1.10351,-2.5195 c 1.28906,-0.664 2.91666,-0.9961 4.88281,-0.9961 1.41926,0 2.51627,0.3516 3.29101,1.0547 0.78124,0.7031 1.17187,1.6862 1.17188,2.9492 l 0,7.2559 -2.64649,0 m -2.83203,-2.5 c 0.46224,0 0.85612,-0.1465 1.18164,-0.4395 0.33203,-0.2929 0.49804,-0.6738 0.49805,-1.1426 l 0,-0.8593 -0.87891,0.039 c -1.25651,0.046 -1.88477,0.5079 -1.88476,1.3868 -1e-5,0.677 0.36132,1.0156 1.08398,1.0156"
         id="path5355"
         inkscape:connector-curvature="0" />
    </g>
    <path
       style="fill:#f4f7f2;fill-opacity:1"
       d="m 113.43639,982.62825 0.0505,-2.41104 0.12162,-1.71362 c 0.59006,-8.3139 2.11926,-16.05658 4.69891,-23.79147 1.51359,-4.53841 3.09845,-8.32729 5.3509,-12.79239 l 1.14591,-2.27154 1.02893,-1.80416 c 7.06617,-12.38996 16.58783,-22.87634 28.22662,-31.08647 2.40573,-1.69704 5.02958,-3.35938 7.8001,-4.94175 l 1.80416,-1.03044 2.59035,-1.29712 2.59037,-1.29712 1.55421,-0.68367 c 10.25364,-4.51038 20.7972,-7.10829 32.12047,-7.91442 l 1.71362,-0.122 2.41104,-0.0505 2.41102,-0.0505 0,9.56828 0,9.56827 -1.57414,0.0519 c -10.54339,0.34731 -19.36304,2.24487 -28.47404,6.12626 l -1.71363,0.73001 -2.03243,1.00595 c -7.08934,3.50883 -12.86394,7.52457 -18.74632,13.03647 l -1.57023,1.47134 -1.47135,1.57024 c -5.51189,5.88238 -9.52764,11.65698 -13.03647,18.74632 l -1.00595,2.03243 -0.73001,1.71363 c -3.88139,9.111 -5.77895,17.93064 -6.12626,28.47403 l -0.0519,1.57415 -9.56828,0 -9.56828,0 0.0505,-2.41102 z m 57.3611,-16.7178 0,-19.12882 19.12881,0 19.12882,0 0,9.56441 0,9.56441 -9.56441,0 -9.56441,0 0,9.56441 0,9.56441 -9.56441,0 -9.5644,0 0,-19.12882 z"
       id="path5652"
       inkscape:connector-curvature="0" />
  </g>
  <g
     inkscape:groupmode="layer"
     inkscape:label="Printing Marks"
     id="printing-marks"
     sodipodi:insensitive="true">
    <g
       inkscape:label="CropMarks"
       id="CropMarks">
      <path
         style="fill:none;stroke:#000000;stroke-width:0.25"
         id="cropTL1"
         d="M 0,-10.629921 0,-46.062992"
         inkscape:connector-curvature="0" />
      <path
         style="fill:none;stroke:#000000;stroke-width:0.25"
         id="cropTL2"
         d="M -10.629921,0 -46.062992,0"
         inkscape:connector-curvature="0" />
      <path
         style="fill:none;stroke:#000000;stroke-width:0.25"
         id="cropTR1"
         d="m 322.44095,-10.629921 0,-35.433071"
         inkscape:connector-curvature="0" />
      <path
         style="fill:none;stroke:#000000;stroke-width:0.25"
         id="cropTR2"
         d="m 333.07087,0 35.43307,0"
         inkscape:connector-curvature="0" />
      <path
         style="fill:none;stroke:#000000;stroke-width:0.25"
         id="cropBL1"
         d="m 0,205.5118 0,35.43307"
         inkscape:connector-curvature="0" />
      <path
         style="fill:none;stroke:#000000;stroke-width:0.25"
         id="cropBL2"
         d="m -10.629921,194.88188 -35.433071,0"
         inkscape:connector-curvature="0" />
      <path
         style="fill:none;stroke:#000000;stroke-width:0.25"
         id="cropBR1"
         d="m 322.44095,205.5118 0,35.43307"
         inkscape:connector-curvature="0" />
      <path
         style="fill:none;stroke:#000000;stroke-width:0.25"
         id="cropBR2"
         d="m 333.07087,194.88188 35.43307,0"
         inkscape:connector-curvature="0" />
    </g>
    <g
       inkscape:label="BleedMarks"
       id="BleedMarks">
      <path
         style="fill:none;stroke:#000000;stroke-width:0.25;stroke-miterlimit:4;stroke-dasharray:4, 2, 1, 2;stroke-dashoffset:0"
         id="bleedTL1"
         d="m -10.629921,-10.629921 0,-35.433071"
         inkscape:connector-curvature="0" />
      <path
         style="fill:none;stroke:#000000;stroke-width:0.25;stroke-miterlimit:4;stroke-dasharray:4, 2, 1, 2;stroke-dashoffset:0"
         id="bleedTL2"
         d="m -10.629921,-10.629921 -35.433071,0"
         inkscape:connector-curvature="0" />
      <path
         style="fill:none;stroke:#000000;stroke-width:0.25;stroke-miterlimit:4;stroke-dasharray:4, 2, 1, 2;stroke-dashoffset:0"
         id="bleedTR1"
         d="m 333.07087,-10.629921 0,-35.433071"
         inkscape:connector-curvature="0" />
      <path
         style="fill:none;stroke:#000000;stroke-width:0.25;stroke-miterlimit:4;stroke-dasharray:4, 2, 1, 2;stroke-dashoffset:0"
         id="bleedTR2"
         d="m 333.07087,-10.629921 35.43307,0"
         inkscape:connector-curvature="0" />
      <path
         style="fill:none;stroke:#000000;stroke-width:0.25;stroke-miterlimit:4;stroke-dasharray:4, 2, 1, 2;stroke-dashoffset:0"
         id="bleedBL1"
         d="m -10.629921,205.5118 0,35.43307"
         inkscape:connector-curvature="0" />
      <path
         style="fill:none;stroke:#000000;stroke-width:0.25;stroke-miterlimit:4;stroke-dasharray:4, 2, 1, 2;stroke-dashoffset:0"
         id="bleedBL2"
         d="m -10.629921,205.5118 -35.433071,0"
         inkscape:connector-curvature="0" />
      <path
         style="fill:none;stroke:#000000;stroke-width:0.25;stroke-miterlimit:4;stroke-dasharray:4, 2, 1, 2;stroke-dashoffset:0"
         id="bleedBR1"
         d="m 333.07087,205.5118 0,35.43307"
         inkscape:connector-curvature="0" />
      <path
         style="fill:none;stroke:#000000;stroke-width:0.25;stroke-miterlimit:4;stroke-dasharray:4, 2, 1, 2;stroke-dashoffset:0"
         id="bleedBR2"
         d="m 333.07087,205.5118 35.43307,0"
         inkscape:connector-curvature="0" />
    </g>
  </g>
</svg>
